<svg width="22" height="20" viewBox="0 0 22 20" fill="none" xmlns="http://www.w3.org/2000/svg">
<g filter="url(#filter0_d_57_1112)">
<path d="M11 4.875C10.1842 4.875 9.38663 5.11693 8.70827 5.57019C8.02992 6.02345 7.50121 6.66769 7.189 7.42143C6.87679 8.17518 6.7951 9.00458 6.95426 9.80475C7.11343 10.6049 7.50629 11.3399 8.08318 11.9168C8.66008 12.4937 9.39508 12.8866 10.1953 13.0457C10.9954 13.2049 11.8248 13.1232 12.5786 12.811C13.3323 12.4988 13.9766 11.9701 14.4298 11.2917C14.8831 10.6134 15.125 9.81585 15.125 9C15.1239 7.90633 14.6889 6.85778 13.9156 6.08444C13.1422 5.3111 12.0937 4.87614 11 4.875ZM11 11.75C10.4561 11.75 9.92442 11.5887 9.47218 11.2865C9.01995 10.9844 8.66747 10.5549 8.45933 10.0524C8.25119 9.54988 8.19673 8.99695 8.30284 8.4635C8.40895 7.93005 8.67086 7.44005 9.05546 7.05546C9.44005 6.67086 9.93005 6.40895 10.4635 6.30284C10.9969 6.19673 11.5499 6.25119 12.0524 6.45933C12.5549 6.66747 12.9844 7.01995 13.2865 7.47218C13.5887 7.92442 13.75 8.4561 13.75 9C13.75 9.72935 13.4603 10.4288 12.9445 10.9445C12.4288 11.4603 11.7293 11.75 11 11.75ZM15.125 0.0625H6.875C5.59906 0.0638649 4.37578 0.571333 3.47356 1.47356C2.57133 2.37578 2.06386 3.59906 2.0625 4.875V13.125C2.06386 14.4009 2.57133 15.6242 3.47356 16.5264C4.37578 17.4287 5.59906 17.9361 6.875 17.9375H15.125C16.4009 17.9361 17.6242 17.4287 18.5264 16.5264C19.4287 15.6242 19.9361 14.4009 19.9375 13.125V4.875C19.9361 3.59906 19.4287 2.37578 18.5264 1.47356C17.6242 0.571333 16.4009 0.0638649 15.125 0.0625ZM18.5625 13.125C18.5625 14.0367 18.2003 14.911 17.5557 15.5557C16.911 16.2003 16.0367 16.5625 15.125 16.5625H6.875C5.96332 16.5625 5.08898 16.2003 4.44432 15.5557C3.79966 14.911 3.4375 14.0367 3.4375 13.125V4.875C3.4375 3.96332 3.79966 3.08898 4.44432 2.44432C5.08898 1.79966 5.96332 1.4375 6.875 1.4375H15.125C16.0367 1.4375 16.911 1.79966 17.5557 2.44432C18.2003 3.08898 18.5625 3.96332 18.5625 4.875V13.125ZM16.5 4.53125C16.5 4.73521 16.4395 4.93459 16.3262 5.10418C16.2129 5.27377 16.0518 5.40595 15.8634 5.484C15.675 5.56205 15.4676 5.58248 15.2676 5.54268C15.0675 5.50289 14.8838 5.40468 14.7395 5.26045C14.5953 5.11623 14.4971 4.93248 14.4573 4.73244C14.4175 4.53239 14.4379 4.32504 14.516 4.13661C14.5941 3.94817 14.7262 3.78711 14.8958 3.6738C15.0654 3.56048 15.2648 3.5 15.4688 3.5C15.7423 3.5 16.0046 3.60865 16.198 3.80205C16.3914 3.99544 16.5 4.25775 16.5 4.53125Z" fill="black"/>
<path d="M8.98606 5.98592C9.58216 5.58762 10.283 5.37502 10.9999 5.375H11C11.9611 5.37614 12.8824 5.75842 13.562 6.43799C14.2417 7.11769 14.624 8.03928 14.625 9.00052C14.6249 9.7173 14.4123 10.418 14.0141 11.0139C13.6158 11.6101 13.0496 12.0747 12.3872 12.3491C11.7248 12.6234 10.996 12.6952 10.2928 12.5553C9.58962 12.4155 8.9437 12.0702 8.43674 11.5633C7.92977 11.0563 7.58453 10.4104 7.44465 9.7072C7.30478 9.00402 7.37657 8.27516 7.65094 7.61277C7.9253 6.95039 8.38993 6.38424 8.98606 5.98592ZM9.1944 11.7023C9.72886 12.0594 10.3572 12.25 11 12.25C11.862 12.25 12.6886 11.9076 13.2981 11.2981C13.9076 10.6886 14.25 9.86195 14.25 9C14.25 8.35721 14.0594 7.72886 13.7023 7.1944C13.3452 6.65994 12.8376 6.24338 12.2437 5.99739C11.6499 5.75141 10.9964 5.68705 10.366 5.81245C9.73552 5.93785 9.15642 6.24738 8.7019 6.7019C8.24738 7.15642 7.93785 7.73552 7.81245 8.36596C7.68705 8.9964 7.75141 9.64986 7.99739 10.2437C8.24338 10.8376 8.65994 11.3452 9.1944 11.7023ZM6.87526 0.5625H15.1247C16.2682 0.563795 17.3644 1.01859 18.1729 1.82711C18.9815 2.6357 19.4363 3.73202 19.4375 4.87554V13.1245C19.4363 14.268 18.9815 15.3643 18.1729 16.1729C17.3643 16.9815 16.268 17.4363 15.1245 17.4375H6.87554C5.73202 17.4363 4.6357 16.9815 3.82711 16.1729C3.01859 15.3644 2.56379 14.2682 2.5625 13.1247V4.87526C2.56379 3.73185 3.01859 2.63563 3.82711 1.82711C4.63563 1.01859 5.73185 0.563795 6.87526 0.5625ZM17.9092 15.9092C18.6477 15.1708 19.0625 14.1693 19.0625 13.125V4.875C19.0625 3.83071 18.6477 2.82919 17.9092 2.09077C17.1708 1.35234 16.1693 0.9375 15.125 0.9375H6.875C5.83071 0.9375 4.82919 1.35234 4.09077 2.09077C3.35234 2.82919 2.9375 3.83071 2.9375 4.875V13.125C2.9375 14.1693 3.35234 15.1708 4.09077 15.9092C4.82919 16.6477 5.83071 17.0625 6.875 17.0625H15.125C16.1693 17.0625 17.1708 16.6477 17.9092 15.9092ZM16 4.53125C16 4.63632 15.9688 4.73903 15.9105 4.8264C15.8521 4.91376 15.7691 4.98185 15.672 5.02206C15.575 5.06227 15.4682 5.07279 15.3651 5.05229C15.2621 5.03179 15.1674 4.9812 15.0931 4.9069C15.0188 4.8326 14.9682 4.73794 14.9477 4.63489C14.9272 4.53184 14.9377 4.42502 14.9779 4.32795C15.0181 4.23088 15.0862 4.14791 15.1736 4.08953C15.261 4.03116 15.3637 4 15.4688 4C15.6096 4 15.7448 4.05597 15.8444 4.1556C15.944 4.25523 16 4.39035 16 4.53125Z" stroke="black"/>
</g>
<defs>
<filter id="filter0_d_57_1112" x="-1.9375" y="0.0625" width="25.875" height="25.875" filterUnits="userSpaceOnUse" color-interpolation-filters="sRGB">
<feFlood flood-opacity="0" result="BackgroundImageFix"/>
<feColorMatrix in="SourceAlpha" type="matrix" values="0 0 0 0 0 0 0 0 0 0 0 0 0 0 0 0 0 0 127 0" result="hardAlpha"/>
<feOffset dy="4"/>
<feGaussianBlur stdDeviation="2"/>
<feComposite in2="hardAlpha" operator="out"/>
<feColorMatrix type="matrix" values="0 0 0 0 0 0 0 0 0 0 0 0 0 0 0 0 0 0 0.25 0"/>
<feBlend mode="normal" in2="BackgroundImageFix" result="effect1_dropShadow_57_1112"/>
<feBlend mode="normal" in="SourceGraphic" in2="effect1_dropShadow_57_1112" result="shape"/>
</filter>
</defs>
</svg>
